<svg width="40" height="40" viewBox="0 0 40 40" fill="none" xmlns="http://www.w3.org/2000/svg">
<circle cx="20" cy="20" r="20" fill="#F3BA2F"/>
<path d="M14.1738 17.6063L19.9998 11.7804L25.8288 17.6093L29.2188 14.2193L19.9998 5L10.7839 14.2163L14.1738 17.6063ZM5 19.9995L8.39011 16.6094L11.78 19.9993L8.38991 23.3894L5 19.9995ZM14.1738 22.3937L19.9998 28.2195L25.8286 22.3909L29.2204 25.779L29.2188 25.7808L19.9998 35L10.7836 25.784L10.7788 25.7792L14.1738 22.3937ZM28.2201 20.0014L31.6102 16.6113L35.0001 20.0012L31.61 23.3913L28.2201 20.0014Z" fill="white"/>
<path d="M23.4386 19.9983H23.4401L20.0002 16.5583L17.458 19.1006H17.4578L17.1658 19.3928L16.5634 19.9953L16.5586 19.9999L16.5634 20.0049L20.0002 23.4418L23.4401 20.0019L23.4418 19.9999L23.4386 19.9983Z" fill="white"/>
</svg>
