<svg width="40" height="40" viewBox="0 0 40 40" fill="none" xmlns="http://www.w3.org/2000/svg">
<path d="M39.4008 24.8401C36.7311 35.5536 25.8768 42.0742 15.1601 39.4005C4.44345 36.7268 -2.07413 25.8779 0.599743 15.1635C3.27362 4.44896 14.1225 -2.07462 24.8368 0.599456C35.5511 3.27353 42.0747 14.123 39.4008 24.8401Z" fill="#F7931A"/>
<path d="M28.8197 17.1505C29.2174 14.4891 27.1909 13.0582 24.4196 12.1038L25.3196 8.4987L23.1244 7.95189L22.2476 11.4622C21.6711 11.3186 21.0787 11.1822 20.4899 11.0486L21.3699 7.51508L19.1769 6.96826L18.2795 10.572L13.8529 9.47553L13.2689 11.8198C13.2689 11.8198 14.8974 12.193 14.863 12.2162C15.7518 12.4382 15.913 13.0262 15.8858 13.4926L13.4229 23.3689C13.3141 23.6389 13.0385 24.0437 12.4173 23.8889C12.4393 23.9209 10.8221 23.4889 10.8221 23.4889L9.73242 26.0048L14.1525 27.1208L13.2441 30.7679L15.4362 31.3147L16.3362 27.7068C16.9362 27.8692 17.5162 28.0192 18.0846 28.1604L17.1882 31.7515L19.3831 32.2984L20.2915 28.6583C24.0342 29.3663 26.8487 29.0807 28.0317 25.6982C28.9861 22.9731 27.9849 21.4011 26.0157 20.3754C27.4497 20.0434 28.5297 19.1006 28.8179 17.1519L28.8197 17.1505ZM23.8036 24.1825C23.1236 26.9076 18.5365 25.435 17.048 25.065L18.2533 20.2338C19.7409 20.605 24.5112 21.3403 23.8044 24.1821L23.8036 24.1825ZM24.4844 17.1119C23.8656 19.592 20.0461 18.332 18.8065 18.0228L19.8977 13.6398C21.1377 13.9495 25.128 14.5259 24.4828 17.1117" fill="white"/>
</svg>
